<svg xmlns="http://www.w3.org/2000/svg" xmlns:xlink="http://www.w3.org/1999/xlink" width="188.976" height="188.976" class="typst-doc" viewBox="0 0 141.732 141.732"><style>#bg {fill:#fff;@media (prefers-color-scheme: dark) {fill:#000;}}#fg {fill:#000;@media (prefers-color-scheme: dark) {fill:#fff;}}</style><path d="M0 0v141.732h141.732V0Z" class="typst-shape" id="bg" /><use xlink:href="#a" class="typst-text" id="fg" transform="matrix(1 0 0 -1 40.706 106.682)"/><defs><symbol id="a" overflow="visible"><path d="M49.408 68.258v2.977h2.976v-2.977zm-3.77 0v2.977h2.976v-2.977zm3.77-3.77v2.977h2.976v-2.977zm-3.77 0v2.977h2.976v-2.977zm3.77-3.77v2.976h2.976v-2.976zm-3.77 0v2.976h2.976v-2.976zm3.77-3.77v2.976h2.976v-2.976zm-3.77 0v2.976h2.976v-2.976zm3.77-3.77v2.976h2.976v-2.976zm-3.77 0v2.976h2.976v-2.976zm3.77-3.77v2.976h2.976v-2.976zm-3.77 0v2.976h2.976v-2.976zm0-3.77v2.976h2.976v-2.976zm3.77 0v2.976h2.976v-2.976zm-3.77-3.77v2.976h2.976v-2.976zm3.77 0v2.976h2.976v-2.976zm0-3.77v2.976h2.976v-2.976zm-3.77 0v2.976h2.976v-2.976zm3.77-3.77v2.976h2.976v-2.976zm-3.77 0v2.976h2.976v-2.976zm0-3.77v2.976h2.976v-2.977zm3.77 0v2.976h2.976v-2.977zm-3.77-3.77v2.976h2.976v-2.977zm3.77 0v2.976h2.976v-2.977zm-3.77-3.77v2.976h2.976v-2.977zm3.77 0v2.976h2.976v-2.977zm-3.77-3.77v2.976h2.976v-2.977zm-33.93 0v2.976h2.975v-2.977zm-3.771 0v2.976h2.976v-2.977zm41.47 0v2.976h2.977v-2.977zm0-3.77v2.976h2.977v-2.977zm-41.47 0v2.976h2.976v-2.977zm3.77 0v2.976h2.976v-2.977zm33.93 0v2.976h2.977v-2.977zm-3.77-3.77v2.975h2.977v-2.976zm7.54 0v2.975h2.977v-2.976zm-3.77 0v2.975h2.977v-2.976zm-30.16 0v2.975h2.977v-2.976zm-3.77 0v2.975h2.976v-2.976zm26.39-3.771v2.976h2.977V7.937zm7.54 0v2.976h2.977V7.937zm-3.77 0v2.976h2.977V7.937zm-26.39 0v2.976h2.977V7.937zm-3.77 0v2.976h2.976V7.937zm7.54 0v2.976h2.977V7.937zm22.62-3.77v2.976h2.977V4.167zm-26.39 0v2.976h2.977V4.167zm3.77 0v2.976h2.977V4.167zm3.77 0v2.976h2.977V4.167zm3.77 0v2.976h2.977V4.167zm3.77 0v2.976h2.977V4.167zm3.77 0v2.976h2.977V4.167zm3.77 0v2.976h2.977V4.167zm0-3.77v2.976h2.977V.397zm-3.77 0v2.976h2.977V.397zm-15.08 0v2.976h2.977V.397zm11.31 0v2.976h2.977V.397zm-3.77 0v2.976h2.977V.397zm-3.77 0v2.976h2.977V.397z"/></symbol></defs></svg>